# xmcd
#
# Track frame offsets: 
#        150
#        15049
#        42645
#        57316
#        73132
#        88034
#        110420
#        131940
#        151969
#        165271
#        183596
#        200941
#        214760
#
# Disc length: 3025 seconds
#
# Revision: 1
# Processed by: cddbd v1.5.2PL0 Copyright (c) Steve Scherf et al.
# Submitted via: ExactAudioCopy v0.99pb4
#
DISCID=ba0bcf0d
DTITLE=The Bluetones - BBC Radio Sessions
DYEAR=2007
DGENRE=Rock
TTITLE0=Slight Return (John Peel 1994)
TTITLE1=Talking to Clarry (John Peel 1994) 
TTITLE2=Glad to See Y'Back Again? (Evening Session 1995)
TTITLE3=String Along (Evening Session 1995)
TTITLE4=Castle Rock (John Peel 1996)
TTITLE5=Vampire (John Peel 1996)
TTITLE6=If...(Evening Session 1998)
TTITLE7=Sleazy Bed Track (Evening Session 1998)
TTITLE8=Solomon Bites The Worm (Evening Session 1998)
TTITLE9=The Basement Song (Evening Session 2000)
TTITLE10=The Last of the Great Navigators (Evening Session 2000)
TTITLE11=I'm Over and I Know It (Evening Session 2000)
TTITLE12=Slack Jaw (Evening Session 2000)
EXTD=
EXTT0=
EXTT1=
EXTT2=
EXTT3=
EXTT4=
EXTT5=
EXTT6=
EXTT7=
EXTT8=
EXTT9=
EXTT10=
EXTT11=
EXTT12=
PLAYORDER=
